<?xml version="1.0" encoding="utf-8"?>
<!-- Generator: Adobe Illustrator 21.1.0, SVG Export Plug-In . SVG Version: 6.00 Build 0)  -->
<svg version="1.1" id="Layer_1" xmlns="http://www.w3.org/2000/svg" xmlns:xlink="http://www.w3.org/1999/xlink" x="0px" y="0px"
	 viewBox="0 0 1000 700" style="enable-background:new 0 0 1000 700;" xml:space="preserve">
<style type="text/css">
	.st0{fill:#3E3E3E;}
	.st1{fill:#4284ED;}
</style>
<path class="st0" d="M173.4,197.8c0-27.3,42.9-27.3,42.9,0v128.4c0,51-24.4,81.9-80.6,81.9c-27.6,0-50.7-7.5-70.8-33.5
	c-16.6-19.8,14.6-48.4,31.5-27.6c13.6,16.9,28.3,20.8,42.6,20.2c18.2-0.7,34.1-8.8,34.5-41L173.4,197.8L173.4,197.8z"/>
<path class="st0" d="M553.7,403.2c-11.7,0-19.8-8.8-19.8-20.2V198.5c0-11.7,8.1-20.1,19.8-20.1H645c42.6,0,65.6,28.9,65.6,62.1
	c0,14.6-4.2,28.9-17.9,40.9c25.7,10.1,37,29.9,37,54c0,37.4-25.4,67.9-74.1,67.9L553.7,403.2L553.7,403.2z M645,218h-68.6v48.4H645
	c14,0,22.7-8.8,22.7-26C667.8,229.7,659,218,645,218z M576.4,363.6h79.3c37.7,0,37.7-57.5,0-57.5c-24.7,0-53.6,0-79.3,0V363.6z"/>
<path class="st1" d="M746.7,209.5c-15.6-20.8,19.5-47.1,36.4-21.8l56.9,84.8l57.5-84.8c17.2-23.7,53.3,0,36.4,21.8l-73.4,106.3v67.3
	c0,28.6-42.9,28-42.9-0.3v-66.9L746.7,209.5z"/>
<path class="st0" d="M378.2,170.2c-60.1,0-122.5,39.3-122.5,119.3c0,22,4.8,41,13,56.9c-2.4,0.6-4.7,1.7-6.7,3.3
	c-0.3,0.3-0.6,0.5-0.9,0.8l-0.7,0.7c-1.6,1.6-2.7,3.4-3.5,5.4c-1.3,3.3-1.4,6.9-0.5,10.4c0.2,0.6,0.4,1.2,0.6,1.8v0.1
	c0.9,2.5,2.4,4.8,4.4,6.9l1.1,1.1c-0.5,0.8-1,1.6-1.6,2.3c-5.6,6.5-5.5,7.2,1,13.4c5.1,4.9,10.2,9.8,15.1,14.9
	c5.1,5.3,5.9,5.4,11.3,0.5c0.9-0.8,1.9-1.6,2.9-2.5c1.6,1.4,3.4,2.5,5.2,3.2c5.7,2.4,12.2,1.8,16.9-1.9c0.4-0.3,0.8-0.7,1.2-1.1
	c0.1-0.1,0.2-0.2,0.3-0.2l0.7-0.7c2.7-2.7,4.2-6.2,4.5-9.9c18.1,8.4,38.3,12.3,58.3,11.4c56.9,0,116.3-40,116.3-117
	S435.1,173.1,378.2,170.2z M374.6,366.5c-36.4,0-76-26-76-77c0-51.3,39.6-77,76-77c37.4,0,77.3,25.7,77.3,77
	C452,340.5,412,366.5,374.6,366.5z"/>
<path class="st1" d="M265.2,408.6c-4.9-4.9-10-10-15-14.8c-0.9-0.9-2.2-1.5-3.8-2.3c-0.3-0.1-0.5-0.3-0.8-0.4
	c-0.4,0.3-0.9,0.6-1.3,0.8c-1.8,1.1-3.3,2.1-4.5,3.2c-33.1,28.8-66.8,58.2-103,90c-2.1,1.8-4,3.9-5.6,6c-1.7,2.2-1.7,4.4,0,6.9
	c9.6,13.6,21.9,25.8,38.8,38.3c1.8,1.3,3.2,1.7,4.5,1.7l0,0c1.7,0,3.8-1.6,6.4-4.6c12.3-14.1,24.7-28.4,36.7-42.2l16-18.5
	c12.8-14.8,26.1-30.1,39.1-45.2c4.6-5.3,4.5-7.1-0.6-12.2C269.7,413.1,267.4,410.8,265.2,408.6z"/>
</svg>
