<?xml version="1.0" encoding="iso-8859-1"?>
<!-- Generator: Adobe Illustrator 19.0.0, SVG Export Plug-In . SVG Version: 6.00 Build 0)  -->
<svg xmlns="http://www.w3.org/2000/svg" xmlns:xlink="http://www.w3.org/1999/xlink" version="1.1" id="Capa_1" x="0px" y="0px" viewBox="0 0 426.667 426.667" style="enable-background:new 0 0 426.667 426.667;" xml:space="preserve" width="512px" height="512px">
<g>
	<g>
		<g>
			<path d="M303.893,122.773L303.893,122.773c-25.067-24.96-57.813-37.44-90.56-37.44v128l-90.56,90.56     c50.027,50.027,130.987,50.027,181.013,0C353.813,253.867,353.813,172.8,303.893,122.773z" fill="#b7b7b7"/>
			<path d="M213.333,0C95.467,0,0,95.467,0,213.333s95.467,213.333,213.333,213.333s213.333-95.573,213.333-213.333     C426.667,95.467,331.2,0,213.333,0z M213.333,384c-94.293,0-170.667-76.373-170.667-170.667S119.04,42.667,213.333,42.667     S384,119.04,384,213.333S307.627,384,213.333,384z" fill="#b7b7b7"/>
		</g>
	</g>
</g>
<g>
</g>
<g>
</g>
<g>
</g>
<g>
</g>
<g>
</g>
<g>
</g>
<g>
</g>
<g>
</g>
<g>
</g>
<g>
</g>
<g>
</g>
<g>
</g>
<g>
</g>
<g>
</g>
<g>
</g>
</svg>
