<?xml version="1.0" encoding="utf-8"?>
<!-- Generator: Adobe Illustrator 21.1.0, SVG Export Plug-In . SVG Version: 6.00 Build 0)  -->
<svg version="1.1" id="Capa_1" xmlns="http://www.w3.org/2000/svg" xmlns:xlink="http://www.w3.org/1999/xlink" x="0px" y="0px"
	 viewBox="0 0 512 512" style="enable-background:new 0 0 512 512;" xml:space="preserve">
<style type="text/css">
	.st0{fill:#FFFFFF;}
</style>
<g>
	<path class="st0" d="M412.4,198.1c-6.8-72-67.5-128.3-141.4-128.3c-56.9,0-105.9,33.3-128.5,81.4c-7.6-2.8-15.8-4.3-24.2-4.3
		c-39.2,0-70.9,31.7-70.9,70.9c0,8.5,1.5,16.8,4.3,24.3c-30.9,18-51.7,51.6-51.7,90C0,387.7,43.7,439,98.6,442h95.9h22.3V331H166
		c-10.3,0-15.6-12.4-8.4-19.8l90-92.6c4.6-4.7,12.2-4.7,16.8,0l90,92.6c7.2,7.4,2,19.8-8.4,19.8h-50.8v111.2h22.2h82.8
		c62.5-4.4,111.9-59.3,111.9-122.7C512.1,260.2,469,207.7,412.4,198.1z"/>
</g>
</svg>
